<svg width="37" height="36" viewBox="0 0 37 36" fill="none" xmlns="http://www.w3.org/2000/svg">
<path d="M10.1718 13.4541C10.207 13.1373 10.2246 12.9789 10.2446 12.8418C10.8044 9.01642 14.0196 6.13866 17.8833 6.0048C18.0218 6 18.1812 6 18.5 6V6C18.8188 6 18.9782 6 19.1167 6.0048C22.9804 6.13866 26.1956 9.01642 26.7554 12.8418C26.7754 12.9789 26.793 13.1373 26.8282 13.4541L27.2059 16.8535C27.3067 17.7603 27.3571 18.2137 27.4572 18.6543C27.5779 19.1855 27.7526 19.7029 27.9785 20.1986C28.1659 20.6098 28.4006 21.001 28.87 21.7834L30.1826 23.971C30.9884 25.3139 31.3912 25.9854 31.104 26.4927C30.8168 27 30.0337 27 28.4676 27H8.53238C6.96627 27 6.18322 27 5.89599 26.4927C5.60876 25.9854 6.01164 25.3139 6.81739 23.971L8.12998 21.7834C8.59942 21.001 8.83415 20.6098 9.0215 20.1986C9.24738 19.7029 9.42205 19.1855 9.54278 18.6543C9.64292 18.2137 9.6933 17.7603 9.79406 16.8535L10.1718 13.4541Z" stroke="#979797"/>
<path d="M14.1533 27.6088C14.4097 28.7251 14.9747 29.7116 15.7606 30.4151C16.5465 31.1187 17.5094 31.5 18.5 31.5C19.4906 31.5 20.4535 31.1187 21.2394 30.4151C22.0253 29.7116 22.5903 28.7251 22.8467 27.6088" stroke="#979797" stroke-linecap="round"/>
</svg>
