<svg width="71" height="100" viewBox="0 0 71 100" fill="none" xmlns="http://www.w3.org/2000/svg">
<g clip-path="url(#clip0_791_18279)">
<path d="M2.51353 67.2457C12.4211 75.2574 19.1047 85.9326 25.6896 96.6747C28.8929 101.9 36.5133 100.681 38.3569 95.0163C47.8402 65.8803 58.4394 37.1221 70.1319 8.80299C71.563 5.33671 68.5838 1.16946 65.2913 0.263217C61.308 -0.8331 58.2024 1.63264 56.7658 5.11195C45.0734 33.431 34.4742 62.1893 24.9909 91.3253L37.6583 89.6669C30.5122 78.0095 23.0635 66.1197 12.3148 57.4278C9.40485 55.0748 5.35781 54.5788 2.5135 57.4278C0.0831168 59.8623 -0.413944 64.8784 2.51353 67.2457Z" fill="#40C97B"/>
</g>
<defs>
<clipPath id="clip0_791_18279">
<rect width="70" height="100" fill="white" transform="translate(0.5)"/>
</clipPath>
</defs>
</svg>
