<svg width="39" height="114" viewBox="0 0 39 114" fill="none" xmlns="http://www.w3.org/2000/svg">
<g clip-path="url(#clip0_792_18301)">
<path d="M17.0332 97.9942C17.6284 98.0757 18.1978 98.2268 18.7561 98.4495L17.5008 97.9176C18.0953 98.1708 18.6441 98.4923 19.1613 98.8804L18.0978 98.0554C18.6974 98.5249 19.2225 99.062 19.6885 99.6651L18.8668 98.5973C19.3268 99.2154 19.7078 99.8751 20.0173 100.581L19.4876 99.321C19.8059 100.083 20.0288 100.867 20.1519 101.684L19.9642 100.281C20.0637 101.036 20.073 101.786 19.9789 102.541L20.1666 101.139C20.0729 101.781 19.9074 102.397 19.6595 102.996L20.1892 101.736C19.9681 102.237 19.6987 102.702 19.3739 103.142L20.1956 102.074C19.839 102.534 19.4381 102.94 18.9857 103.305L20.0492 102.48C19.51 102.895 18.9297 103.23 18.3054 103.498L19.5607 102.966C18.8754 103.245 18.1701 103.433 17.439 103.543L18.836 103.354C17.9899 103.466 17.145 103.468 16.2981 103.363L17.6951 103.552C16.9059 103.441 16.1447 103.241 15.4055 102.942L16.6607 103.474C15.985 103.186 15.3575 102.825 14.7758 102.374L15.8393 103.199C15.3912 102.837 14.9911 102.435 14.6338 101.982L15.4554 103.05C15.0936 102.568 14.7996 102.056 14.5649 101.501L15.0946 102.761C14.8692 102.188 14.7197 101.603 14.6376 100.992L14.8253 102.395C14.7513 101.729 14.7605 101.07 14.8434 100.406L14.6557 101.809C14.7694 101.026 14.98 100.275 15.2799 99.5437L14.7502 100.804C15.0656 100.073 15.4585 99.392 15.9329 98.7532L15.1113 99.8211C15.5938 99.1952 16.1378 98.6371 16.757 98.1466L15.6935 98.9716C16.2252 98.5674 16.7894 98.229 17.4 97.9591L16.1448 98.491C16.711 98.256 17.2891 98.0913 17.8948 97.998L16.4979 98.1864C16.7782 98.1504 17.0567 98.1291 17.3391 98.122C18.7076 98.0873 20.078 97.5574 21.0548 96.5766C21.9662 95.6615 22.6525 94.1601 22.5939 92.8458C22.469 90.0468 20.283 87.495 17.3391 87.5697C14.2527 87.6479 11.6286 88.8175 9.2601 90.7369C7.24453 92.3702 5.92767 94.6564 5.0201 97.0528C4.11909 99.4318 4.04036 102.24 4.6727 104.693C5.41911 107.59 7.24093 109.841 9.59452 111.581C11.614 113.074 14.0825 113.696 16.5353 113.944C19.0353 114.196 21.4937 113.576 23.7534 112.548C28.293 110.482 31.0906 105.212 30.4738 100.281C30.2376 98.3931 29.8383 96.919 29.059 95.18C28.5038 93.9408 27.6888 92.8533 26.8137 91.8217C25.1168 89.8213 22.4397 88.1764 19.8271 87.8188C18.3612 87.6182 17.1121 87.5668 15.7779 88.3507C14.6879 88.9912 13.6483 90.2461 13.363 91.5039C13.0566 92.8545 13.1229 94.3706 13.8927 95.5695C14.5769 96.635 15.7194 97.8144 17.0332 97.9942Z" fill="#EB5757"/>
<path d="M21.8078 76.4926C18.4274 65.5717 16.0532 54.2769 13.9225 43.0534C13.3444 40.0081 12.8002 36.9561 12.3045 33.8961C11.8222 30.9189 11.4538 28.4053 11.1762 26.0423C10.894 23.6403 10.6558 21.2292 10.5527 18.812C10.5141 17.9068 10.4916 17.0002 10.5089 16.0941C10.5164 15.7018 10.5413 15.3107 10.5527 14.9187C10.5835 13.8697 10.7623 14.095 10.5303 14.7508C10.6183 14.5021 10.5626 14.1651 10.6983 13.9346C11.1895 13.1005 10.2847 14.3299 10.4623 14.376C10.4623 14.376 12.5059 12.0779 12.4931 12.0876C13.3308 11.4467 13.7193 11.3426 14.9518 11.0558C16.0918 10.7905 17.6168 10.7498 19.2107 10.7044C22.3254 10.6155 24.9303 10.4373 26.839 11.8274C26.8775 11.8554 27.8695 12.8378 28.193 13.1544C28.4956 13.4507 28.7618 13.5523 28.5675 13.5524C28.2878 13.5525 28.5213 13.2529 28.5405 13.5307C28.5634 13.8627 27.8619 12.2954 28.368 13.1621C28.7369 13.7938 28.4263 13.9367 28.4008 12.9373C28.4442 14.64 28.4836 16.2822 28.3182 17.9873C28.2707 18.4768 28.2125 18.9651 28.1534 19.4534C28.0572 20.2483 28.2841 18.5624 28.1609 19.3817C28.1264 19.6114 28.0953 19.8416 28.0582 20.0709C27.8454 21.3849 27.6224 22.696 27.3702 24.003C26.2649 29.7311 24.8202 35.3938 23.2709 41.0151C19.9738 52.9783 16.3128 64.9759 11.6736 76.4925C10.6091 79.1352 12.8323 82.29 15.3438 82.9829C18.3467 83.8113 20.7393 81.9502 21.8078 79.2978C26.2498 68.2706 29.7703 56.7993 32.9777 45.3584C34.7418 39.0659 36.3906 32.721 37.6024 26.2952C38.4791 21.6467 39.4393 16.7156 38.783 11.9785C37.8507 5.24894 31.0086 0.988648 24.7347 0.284701C17.3078 -0.548617 8.72838 0.173648 3.55485 6.18342C0.236991 10.0376 -0.176919 14.0821 0.0522533 19.0226C0.336559 25.1514 1.27748 31.2698 2.27062 37.3164C4.58545 51.4098 7.44698 65.6431 11.6736 79.2978C13.6745 85.762 23.8231 83.0034 21.8078 76.4926Z" fill="#EB5757"/>
</g>
<defs>
<clipPath id="clip0_792_18301">
<rect width="39" height="114" fill="white"/>
</clipPath>
</defs>
</svg>
