<svg width="12" height="11" viewBox="0 0 12 11" fill="none" xmlns="http://www.w3.org/2000/svg">
<path fill-rule="evenodd" clip-rule="evenodd" d="M11.25 5.5C11.25 8.3995 8.8995 10.75 6 10.75C3.10051 10.75 0.75 8.3995 0.75 5.5C0.75 2.60051 3.10051 0.25 6 0.25C8.8995 0.25 11.25 2.60051 11.25 5.5ZM6.58333 3.16667C6.58333 3.48883 6.32217 3.75 6 3.75C5.67783 3.75 5.41667 3.48883 5.41667 3.16667C5.41667 2.8445 5.67783 2.58333 6 2.58333C6.32217 2.58333 6.58333 2.8445 6.58333 3.16667ZM7 8.41667V4.91667H5V8.41667H7Z" fill="white"/>
</svg>
