<svg width="263" height="263" viewBox="0 0 263 263" fill="none" xmlns="http://www.w3.org/2000/svg">
<path d="M76.7131 89.084V98.8856H86.2152V89.084H76.7131Z" fill="#4D2C77"/>
<path d="M110.63 147.126V156.918H120.133V147.126H110.63ZM98.6372 147.126V156.918H108.215V147.126H98.6372Z" fill="#4D2C77"/>
<path d="M146.598 103.242C144.548 103.242 142.721 103.681 141.036 104.487C139.363 105.066 137.965 106.021 136.731 107.258C135.486 108.651 134.464 110.185 133.66 111.863C133.071 113.472 132.778 115.223 132.778 117.059V130.239H115.374V105.974H104.338V130.239H86.3613V105.682H75.6148V142.522C75.6148 142.887 75.5418 143.403 75.3251 144.056C74.95 144.864 74.0807 145.3 72.9094 145.3H65.5234V156.339H72.9094C74.7357 156.339 76.4185 155.898 78.0939 155.095C79.779 154.505 81.1646 153.485 82.409 152.024C83.6534 150.779 84.6762 149.394 85.4798 147.709C86.0593 146.109 86.3564 144.348 86.3564 142.524V140.99H170.492V103.245H146.591L146.598 103.242ZM143.527 130.239V117.059C143.527 116.395 143.603 115.888 143.82 115.523C144.626 114.717 145.354 114.278 146.598 114.278H159.466V130.239H143.527Z" fill="#4D2C77"/>
<path d="M185.485 89.0913H175.983V98.8856H185.485V89.0913Z" fill="#4D2C77"/>
<path d="M197.474 89.0913H187.972V98.8856H197.474V89.0913Z" fill="#4D2C77"/>
<path d="M197.474 103.242V140.988H172.542V130.239H186.435V103.242H197.474Z" fill="#4D2C77"/>
<path d="M77.8333 169.501V192.881C76.0069 193.758 74.1513 194.199 72.2713 194.199C69.9969 194.199 68.302 193.617 67.1916 192.453C66.0811 191.289 65.5259 189.64 65.5259 187.507C65.5259 186.323 65.7499 185.079 66.198 183.771L67.4886 183.53L67.5958 183.61C67.2743 184.938 67.1112 186.075 67.1112 187.022C67.1112 188.849 67.5422 190.21 68.4018 191.106C69.2615 192.002 70.669 192.45 72.622 192.45C73.8932 192.45 75.1205 192.253 76.304 191.858V169.501H77.8357H77.8333Z" fill="#4D2C77"/>
<path d="M95.2204 188.203V189.277L94.9526 189.652H92.4273C91.9962 193.398 90.0895 195.268 86.7022 195.268C85.4846 195.268 84.3473 195.007 83.2905 194.488L83.1565 193.01L83.2905 192.876C84.4009 193.307 85.6453 193.522 87.026 193.522C88.1365 193.522 89.018 193.234 89.6731 192.662C90.3281 192.087 90.7348 191.077 90.8955 189.625C86.7923 189.338 83.9626 188.013 82.4041 185.649C82.8521 183.786 83.5681 182.259 84.5543 181.066C85.5406 179.875 86.578 179.278 87.6714 179.278C88.7648 179.278 89.6414 179.736 90.4134 180.649C91.1829 181.563 91.7308 182.641 92.0523 183.888C92.3737 185.133 92.5369 186.438 92.5369 187.799V187.987L94.955 187.96L95.2229 188.201L95.2204 188.203ZM84.0405 185.22C85.3652 186.796 87.6762 187.711 90.9735 187.962C90.9735 187.193 90.915 186.44 90.7981 185.705C90.6812 184.969 90.4937 184.231 90.2332 183.489C89.9726 182.746 89.6025 182.149 89.1179 181.701C88.6333 181.253 88.061 181.029 87.3986 181.029C86.7898 181.029 86.1713 181.433 85.5454 182.239C84.9172 183.046 84.4179 184.039 84.0405 185.223V185.22Z" fill="#4D2C77"/>
<path d="M114.006 188.257V189.384L113.738 189.652H113.066C112.026 189.652 111.032 189.267 110.082 188.495L109.437 189.652H94.9527L94.6848 189.221V188.335L94.9527 187.96H108.899C108.809 186.652 108.585 185.563 108.227 184.694C107.869 183.825 107.372 183.174 106.737 182.746C106.101 182.315 105.434 182.02 104.735 181.859C104.036 181.699 103.193 181.618 102.21 181.618C100.651 181.618 98.8952 181.745 96.9422 181.993L96.2701 180.488L106.32 169.552H106.508L107.367 170.843L98.3108 180.41C99.9229 180.089 101.411 179.926 102.772 179.926C103.507 179.926 104.192 179.989 104.827 180.113C105.463 180.24 106.113 180.467 106.776 180.798C107.438 181.129 108.013 181.562 108.495 182.101C108.979 182.639 109.391 183.35 109.732 184.236C110.073 185.123 110.287 186.14 110.377 187.285C111.093 187.733 112.026 187.957 113.173 187.957H113.738L114.006 188.252V188.257Z" fill="#4D2C77"/>
<path d="M131.419 187.962L130.372 189.655C127.774 189.655 125.787 189.207 124.406 188.31L123.6 189.655C121.413 189.655 119.667 189.243 118.36 188.418L118.145 189.655H113.738L113.47 189.494V188.123L113.738 187.962H116.962L118.036 180.949H119.594L118.547 187.183C119.353 187.504 120.057 187.716 120.656 187.814C121.255 187.914 122.049 187.962 123.035 187.962L123.948 180.949H125.56L124.728 187.183C126.052 187.702 127.747 187.962 129.807 187.962C129.54 185.668 129.126 183.063 128.57 180.143L130.129 179.768C130.755 183.046 131.186 185.778 131.419 187.965V187.962Z" fill="#4D2C77"/>
<path d="M196.904 73.5912L174.07 82.1655V76.4794L196.904 67.7297V73.5912Z" fill="#CA56A1"/>
</svg>
