<svg width="29" height="28" viewBox="0 0 29 28" fill="none" xmlns="http://www.w3.org/2000/svg">
<path d="M23.0168 9.24002V15.2484C23.0168 18.8417 20.9634 20.3817 17.8834 20.3817H7.62845C7.10345 20.3817 6.60178 20.335 6.13512 20.23C5.84345 20.1834 5.56345 20.1017 5.30678 20.0084C3.55678 19.355 2.49512 17.8384 2.49512 15.2484V9.24002C2.49512 5.64669 4.54845 4.10669 7.62845 4.10669H17.8834C20.4968 4.10669 22.3751 5.21502 22.8768 7.74669C22.9584 8.21336 23.0168 8.69169 23.0168 9.24002Z" stroke="black" stroke-width="1.5" stroke-miterlimit="10" stroke-linecap="round" stroke-linejoin="round"/>
<path d="M26.5179 12.7399V18.7482C26.5179 22.3416 24.4646 23.8816 21.3846 23.8816H11.1296C10.2662 23.8816 9.48456 23.7649 8.8079 23.5083C7.41956 22.9949 6.47456 21.9333 6.13623 20.2299C6.6029 20.3349 7.10456 20.3816 7.62956 20.3816H17.8846C20.9646 20.3816 23.0179 18.8416 23.0179 15.2482V9.23992C23.0179 8.69158 22.9712 8.20158 22.8779 7.74658C25.0946 8.21325 26.5179 9.77658 26.5179 12.7399V12.7399Z" stroke="black" stroke-width="1.5" stroke-miterlimit="10" stroke-linecap="round" stroke-linejoin="round"/>
<path d="M6.07666 9.68326V14.8166M19.4257 9.68326V14.8166M12.7477 15.3299C13.5645 15.3299 14.3479 15.0054 14.9255 14.4278C15.5032 13.8502 15.8277 13.0668 15.8277 12.2499C15.8277 11.4331 15.5032 10.6496 14.9255 10.072C14.3479 9.49442 13.5645 9.16992 12.7477 9.16992C11.9308 9.16992 11.1474 9.49442 10.5698 10.072C9.99216 10.6496 9.66766 11.4331 9.66766 12.2499C9.66766 13.0668 9.99216 13.8502 10.5698 14.4278C11.1474 15.0054 11.9308 15.3299 12.7477 15.3299V15.3299Z" stroke="black" stroke-width="1.5" stroke-miterlimit="10" stroke-linecap="round" stroke-linejoin="round"/>
</svg>
