<svg width="24" height="24" viewBox="0 0 24 24" fill="none" xmlns="http://www.w3.org/2000/svg">
<path d="M19.3 7.92002V13.07C19.3 16.15 17.54 17.47 14.9 17.47H6.10996C5.65996 17.47 5.22996 17.43 4.82996 17.34C4.57996 17.3 4.33996 17.23 4.11996 17.15C2.61996 16.59 1.70996 15.29 1.70996 13.07V7.92002C1.70996 4.84002 3.46996 3.52002 6.10996 3.52002H14.9C17.14 3.52002 18.75 4.47002 19.18 6.64002C19.25 7.04002 19.3 7.45002 19.3 7.92002Z" stroke="#4D2C77" stroke-width="1.5" stroke-miterlimit="10" stroke-linecap="round" stroke-linejoin="round"/>
<path d="M22.3011 10.9201V16.0701C22.3011 19.1501 20.5411 20.4701 17.9011 20.4701H9.11105C8.37105 20.4701 7.70105 20.3701 7.12105 20.1501C5.93105 19.7101 5.12105 18.8001 4.83105 17.3401C5.23105 17.4301 5.66105 17.4701 6.11105 17.4701H14.9011C17.5411 17.4701 19.3011 16.1501 19.3011 13.0701V7.92014C19.3011 7.45014 19.2611 7.03014 19.1811 6.64014C21.0811 7.04014 22.3011 8.38014 22.3011 10.9201V10.9201Z" stroke="#4D2C77" stroke-width="1.5" stroke-miterlimit="10" stroke-linecap="round" stroke-linejoin="round"/>
<path d="M4.78003 8.29986V12.6999M16.222 8.29986V12.6999M10.498 13.1399C11.1982 13.1399 11.8697 12.8617 12.3648 12.3666C12.8599 11.8715 13.138 11.2 13.138 10.4999C13.138 9.79969 12.8599 9.1282 12.3648 8.6331C11.8697 8.138 11.1982 7.85986 10.498 7.85986C9.79786 7.85986 9.12636 8.138 8.63127 8.6331C8.13617 9.1282 7.85803 9.79969 7.85803 10.4999C7.85803 11.2 8.13617 11.8715 8.63127 12.3666C9.12636 12.8617 9.79786 13.1399 10.498 13.1399V13.1399Z" stroke="#4D2C77" stroke-width="1.5" stroke-miterlimit="10" stroke-linecap="round" stroke-linejoin="round"/>
</svg>
