<svg width="36" height="36" viewBox="0 0 36 36" fill="none" xmlns="http://www.w3.org/2000/svg">
<path d="M18 18.75C24.5461 18.75 25.8981 24.4164 26.1773 26.7569C26.2427 27.3053 25.8023 27.75 25.25 27.75H10.75C10.1977 27.75 9.75726 27.3053 9.82268 26.7569C10.1019 24.4164 11.4539 18.75 18 18.75Z" fill="#4D2C77" stroke="#4D2C77" stroke-linecap="round"/>
<path fill-rule="evenodd" clip-rule="evenodd" d="M29.0689 23.6631C28.6315 21.5844 27.2411 17.25 23.25 17.25C21.6701 17.25 20.4977 17.9292 19.6306 18.8789C23.4934 19.5208 25.102 22.4345 25.7719 24.75H28.145C28.7366 24.75 29.1907 24.242 29.0689 23.6631Z" fill="#4D2C77"/>
<path d="M29.0689 23.6631L29.5582 23.5602V23.5602L29.0689 23.6631ZM19.6306 18.8789L19.2614 18.5417L18.6409 19.2213L19.5486 19.3721L19.6306 18.8789ZM25.7719 24.75L25.2916 24.889L25.3961 25.25H25.7719V24.75ZM23.25 17.75C25.0288 17.75 26.2367 18.7031 27.0769 19.9556C27.9258 21.2212 28.3662 22.7518 28.5796 23.766L29.5582 23.5602C29.3342 22.4957 28.8607 20.8198 27.9073 19.3985C26.9452 17.9641 25.4622 16.75 23.25 16.75V17.75ZM19.9999 19.216C20.7892 18.3514 21.834 17.75 23.25 17.75V16.75C21.5061 16.75 20.2061 17.507 19.2614 18.5417L19.9999 19.216ZM19.5486 19.3721C23.1368 19.9684 24.6463 22.6583 25.2916 24.889L26.2522 24.611C25.5578 22.2108 23.8501 19.0732 19.7126 18.3856L19.5486 19.3721ZM28.145 24.25H25.7719V25.25H28.145V24.25ZM28.5796 23.766C28.6294 24.0027 28.4521 24.25 28.145 24.25V25.25C29.0211 25.25 29.752 24.4814 29.5582 23.5602L28.5796 23.766Z" fill="#4D2C77"/>
<path fill-rule="evenodd" clip-rule="evenodd" d="M16.3693 18.8789C15.5022 17.9292 14.3299 17.25 12.7499 17.25C8.75882 17.25 7.36836 21.5844 6.93101 23.6631C6.8092 24.242 7.2633 24.75 7.85492 24.75H10.228C10.8979 22.4345 12.5065 19.5208 16.3693 18.8789Z" fill="#4D2C77"/>
<path d="M16.3693 18.8789L16.4513 19.3721L17.359 19.2213L16.7385 18.5417L16.3693 18.8789ZM6.93101 23.6631L7.4203 23.766H7.4203L6.93101 23.6631ZM10.228 24.75V25.25H10.6038L10.7083 24.889L10.228 24.75ZM12.7499 17.75C14.1659 17.75 15.2107 18.3514 16 19.216L16.7385 18.5417C15.7938 17.507 14.4938 16.75 12.7499 16.75V17.75ZM7.4203 23.766C7.63369 22.7518 8.0741 21.2212 8.92304 19.9556C9.76322 18.7031 10.9711 17.75 12.7499 17.75V16.75C10.5377 16.75 9.05475 17.9641 8.09258 19.3985C7.13918 20.8198 6.66568 22.4957 6.44172 23.5601L7.4203 23.766ZM7.85492 24.25C7.54779 24.25 7.37051 24.0027 7.4203 23.766L6.44172 23.5601C6.24789 24.4814 6.9788 25.25 7.85492 25.25V24.25ZM10.228 24.25H7.85492V25.25H10.228V24.25ZM10.7083 24.889C11.3536 22.6583 12.8631 19.9684 16.4513 19.3721L16.2873 18.3856C12.1498 19.0732 10.4421 22.2108 9.74767 24.611L10.7083 24.889Z" fill="#4D2C77"/>
<circle cx="11.5" cy="12.5" r="3.5" fill="#4D2C77"/>
<circle cx="24.5" cy="12.5" r="3.5" fill="#4D2C77"/>
<circle cx="18" cy="12" r="5" fill="#4D2C77"/>
<circle cx="18" cy="12" r="5" stroke="#4D2C77"/>
<circle cx="28" cy="11" r="2.5" fill="#EB5757" stroke="#EB5757"/>
</svg>
