<svg width="36" height="36" viewBox="0 0 36 36" fill="none" xmlns="http://www.w3.org/2000/svg">
<circle cx="18" cy="12" r="5" stroke="#979797" stroke-width="2" stroke-linecap="round"/>
<path d="M22.4689 11.75C22.933 10.9461 23.6975 10.3595 24.5941 10.1193C25.4908 9.87901 26.4461 10.0048 27.25 10.4689C28.0539 10.933 28.6405 11.6975 28.8807 12.5941C29.121 13.4908 28.9952 14.4461 28.5311 15.25C28.067 16.0539 27.3025 16.6405 26.4059 16.8807C25.5092 17.121 24.5539 16.9952 23.75 16.5311C22.9461 16.067 22.3595 15.3025 22.1193 14.4059C21.879 13.5092 22.0048 12.5539 22.4689 11.75L22.4689 11.75Z" stroke="#979797" stroke-width="2"/>
<path d="M7.46891 11.75C7.93304 10.9461 8.69751 10.3595 9.59413 10.1193C10.4908 9.87901 11.4461 10.0048 12.25 10.4689C13.0539 10.933 13.6405 11.6975 13.8807 12.5941C14.121 13.4908 13.9952 14.4461 13.5311 15.25C13.067 16.0539 12.3025 16.6405 11.4059 16.8807C10.5092 17.121 9.55389 16.9952 8.75 16.5311C7.94611 16.067 7.35951 15.3025 7.11926 14.4059C6.87901 13.5092 7.00478 12.5539 7.46891 11.75L7.46891 11.75Z" stroke="#979797" stroke-width="2"/>
<path d="M25.3225 27L24.3422 27.1974L24.5038 28H25.3225V27ZM31.2544 25.8968L32.2148 25.6183L32.2148 25.6183L31.2544 25.8968ZM22.1713 22.0658L21.5664 21.2695L20.4098 22.1479L21.6431 22.915L22.1713 22.0658ZM30.3672 26H25.3225V28H30.3672V26ZM30.2939 26.1753C30.29 26.1616 30.2865 26.1342 30.2937 26.1008C30.3006 26.0693 30.3141 26.0453 30.327 26.0296C30.3523 25.9989 30.3736 26 30.3672 26V28C31.5349 28 32.5947 26.9284 32.2148 25.6183L30.2939 26.1753ZM25.5 22C27.0875 22 28.1391 22.6428 28.8724 23.4645C29.6322 24.3159 30.0636 25.3809 30.2939 26.1753L32.2148 25.6183C31.9427 24.68 31.4032 23.2966 30.3646 22.1328C29.2994 20.9392 27.7251 20 25.5 20V22ZM22.7761 22.8621C23.4384 22.3591 24.312 22 25.5 22V20C23.8682 20 22.571 20.5064 21.5664 21.2695L22.7761 22.8621ZM21.6431 22.915C23.3742 23.9916 24.0699 25.8456 24.3422 27.1974L26.3028 26.8026C25.9868 25.2335 25.1198 22.722 22.6994 21.2166L21.6431 22.915Z" fill="#979797"/>
<path d="M13.8288 22.0658L14.357 22.9149L15.5903 22.1479L14.4337 21.2694L13.8288 22.0658ZM4.74574 25.8968L3.7853 25.6183L3.7853 25.6183L4.74574 25.8968ZM10.6776 27V28H11.4963L11.6579 27.1974L10.6776 27ZM10.5001 22C11.6881 22 12.5617 22.3591 13.224 22.8621L14.4337 21.2694C13.4291 20.5064 12.1319 20 10.5001 20V22ZM5.70618 26.1753C5.93653 25.3809 6.36791 24.3159 7.12774 23.4645C7.86102 22.6428 8.91266 22 10.5001 22V20C8.27503 20 6.70072 20.9392 5.63555 22.1328C4.59695 23.2966 4.05739 24.68 3.7853 25.6183L5.70618 26.1753ZM5.63284 26C5.6265 26 5.6478 25.9989 5.67309 26.0296C5.686 26.0453 5.69952 26.0693 5.70635 26.1008C5.7136 26.1342 5.71014 26.1616 5.70618 26.1753L3.7853 25.6183C3.40542 26.9284 4.46514 28 5.63284 28V26ZM10.6776 26H5.63284V28H10.6776V26ZM11.6579 27.1974C11.9302 25.8456 12.6259 23.9916 14.357 22.9149L13.3007 21.2166C10.8803 22.7219 10.0133 25.2335 9.69727 26.8026L11.6579 27.1974Z" fill="#979797"/>
<path d="M18 21C23.7891 21 25.1097 25.4685 25.411 27.5072C25.4917 28.0536 25.0523 28.5 24.5 28.5H11.5C10.9477 28.5 10.5083 28.0536 10.589 27.5072C10.8903 25.4685 12.2109 21 18 21Z" stroke="#979797" stroke-width="2" stroke-linecap="round"/>
<circle cx="28" cy="11" r="2.5" fill="#EB5757" stroke="#EB5757"/>
</svg>
