<svg width="15" height="12" viewBox="0 0 15 12" fill="none" xmlns="http://www.w3.org/2000/svg">
<path d="M12.5019 7.7533L12.067 6.99228C11.7902 6.5078 11.6518 6.26556 11.6518 6C11.6518 5.73444 11.7902 5.4922 12.067 5.00773L12.067 5.00772L12.5019 4.2467C13.7402 2.07966 14.3593 0.996147 13.8765 0.458828C13.3937 -0.078491 12.2504 0.421706 9.96377 1.4221L3.68815 4.16769C1.89264 4.95322 0.994892 5.34599 0.994892 6C0.994893 6.65402 1.89264 7.04678 3.68815 7.83232L9.96376 10.5779C12.2504 11.5783 13.3937 12.0785 13.8765 11.5412C14.3593 11.0039 13.7402 9.92034 12.5019 7.7533Z" fill="white"/>
</svg>
