<svg width="27" height="28" viewBox="0 0 27 28" fill="none" xmlns="http://www.w3.org/2000/svg">
<path d="M16.875 9.5H16.8863M12.375 23H7.875C6.97989 23 6.12145 22.6444 5.48851 22.0115C4.85558 21.3786 4.5 20.5201 4.5 19.625V8.375C4.5 7.47989 4.85558 6.62145 5.48851 5.98851C6.12145 5.35558 6.97989 5 7.875 5H19.125C20.0201 5 20.8786 5.35558 21.5115 5.98851C22.1444 6.62145 22.5 7.47989 22.5 8.375V12.875" stroke="#C2C2C2" stroke-width="2" stroke-linecap="round" stroke-linejoin="round"/>
<path d="M4.5 17.3751L9 12.8751C10.044 11.8704 11.331 11.8704 12.375 12.8751L15.75 16.2501L16.875 15.1251C17.2238 14.7898 17.5995 14.5659 17.9854 14.4546M20.7225 18.0613C20.9419 17.8419 21.2023 17.6679 21.489 17.5491C21.7756 17.4304 22.0829 17.3693 22.3931 17.3693C22.7034 17.3693 23.0106 17.4304 23.2973 17.5491C23.5839 17.6679 23.8444 17.8419 24.0637 18.0613C24.2831 18.2807 24.4572 18.5411 24.5759 18.8278C24.6946 19.1144 24.7557 19.4217 24.7557 19.7319C24.7557 20.0422 24.6946 20.3494 24.5759 20.6361C24.4572 20.9227 24.2831 21.1832 24.0637 21.4026L20.25 25.2501H16.875V21.8751L20.7225 18.0613Z" stroke="#C2C2C2" stroke-width="2" stroke-linecap="round" stroke-linejoin="round"/>
</svg>
